<?xml version="1.0" standalone="no"?>
<!DOCTYPE svg PUBLIC "-//W3C//DTD SVG 20010904//EN"
 "http://www.w3.org/TR/2001/REC-SVG-20010904/DTD/svg10.dtd">
<svg version="1.0" xmlns="http://www.w3.org/2000/svg"
 width="887.000000pt" height="887.000000pt" viewBox="0 0 887.000000 887.000000"
 preserveAspectRatio="xMidYMid meet">
<metadata>
Created by potrace 1.11, written by Peter Selinger 2001-2013
</metadata>
<g transform="translate(0.000000,887.000000) scale(0.100000,-0.100000)"
fill="#000000" stroke="none">
<path d="M4825 8534 c-56 -37 -115 -88 -115 -97 0 -5 -17 -29 -38 -53 -22 -24
-60 -79 -86 -124 -25 -44 -50 -80 -55 -80 -4 0 -22 -30 -40 -67 -62 -127 -125
-228 -211 -331 -98 -119 -239 -312 -240 -328 0 -5 -9 -20 -21 -33 -23 -24
-152 -264 -206 -381 -18 -41 -40 -81 -47 -90 -7 -8 -28 -42 -46 -75 -38 -70
-120 -185 -133 -185 -4 0 -5 -5 -2 -10 3 -6 -1 -13 -9 -16 -9 -3 -13 -10 -10
-15 3 -5 -2 -12 -10 -15 -9 -3 -14 -10 -11 -14 3 -5 -4 -15 -15 -23 -11 -7
-17 -17 -13 -20 3 -4 1 -7 -6 -7 -6 0 -11 -6 -9 -12 3 -18 -12 -58 -22 -58 -4
0 -7 -11 -5 -25 1 -14 -1 -25 -5 -25 -13 0 -40 -138 -50 -261 -6 -68 -19 -196
-29 -284 -10 -88 -19 -171 -19 -185 -1 -14 -6 -90 -11 -170 -6 -80 -11 -155
-11 -167 0 -57 -51 2 -128 147 -19 36 -41 72 -48 80 -31 37 -134 280 -147 350
-11 52 -18 186 -23 430 -4 195 -7 362 -7 370 1 8 6 141 12 295 6 154 13 289
15 300 3 11 12 67 22 125 9 58 29 157 46 220 22 88 29 138 29 211 0 88 -2 102
-30 156 -43 86 -134 194 -187 222 -84 44 -204 23 -248 -44 -46 -71 -58 -132
-66 -350 -8 -210 -32 -395 -85 -670 -12 -66 -23 -133 -23 -149 1 -43 -65 -360
-76 -367 -5 -4 -6 -14 -3 -23 4 -9 3 -16 -2 -16 -17 0 -32 -182 -32 -394 1
-213 -8 -295 -35 -338 -5 -7 -13 -31 -19 -53 -17 -68 -36 -52 -108 88 -36 71
-95 172 -131 225 -69 105 -195 255 -226 272 -11 6 -20 17 -20 24 0 19 -114
125 -188 175 -34 23 -93 54 -130 68 -120 45 -264 23 -385 -59 -19 -12 -35 -27
-36 -33 0 -5 -8 -18 -16 -28 -17 -19 -21 -127 -5 -127 5 0 7 -7 4 -15 -4 -8
-1 -15 6 -15 6 0 8 -4 5 -10 -3 -5 -1 -10 5 -10 6 0 8 -4 5 -10 -3 -5 -1 -10
5 -10 6 0 9 -4 6 -9 -4 -5 -3 -11 1 -13 14 -6 85 -98 76 -98 -4 -1 3 -7 17
-15 14 -8 21 -14 15 -15 -5 0 1 -7 13 -16 12 -8 22 -22 22 -30 0 -8 5 -14 10
-14 6 0 10 -6 10 -14 0 -8 7 -16 15 -20 8 -3 15 -12 15 -20 0 -7 7 -16 15 -20
8 -3 15 -10 15 -15 0 -6 11 -22 25 -37 14 -15 25 -33 25 -40 0 -8 5 -14 10
-14 6 0 15 -10 20 -22 11 -25 69 -108 102 -148 29 -32 183 -261 202 -298 9
-17 22 -37 31 -45 8 -9 59 -87 112 -174 93 -153 153 -261 266 -483 29 -58 71
-134 93 -170 22 -36 43 -72 46 -80 24 -59 186 -254 291 -348 14 -12 60 -82
103 -155 43 -72 87 -145 99 -162 12 -16 71 -113 130 -214 164 -279 242 -467
269 -646 14 -93 74 -348 96 -405 6 -14 12 -41 14 -60 3 -19 14 -66 26 -105 52
-171 60 -202 65 -242 3 -23 9 -53 14 -66 6 -14 8 -27 5 -29 -2 -2 5 -36 15
-74 40 -142 99 -380 99 -394 -1 -8 16 -88 36 -176 38 -170 72 -358 75 -410 5
-110 95 -325 181 -431 78 -96 211 -179 345 -215 233 -62 970 -39 1201 37 209
70 360 160 485 291 56 60 168 203 221 284 9 14 30 41 48 60 64 70 198 277 266
410 33 65 115 249 118 267 2 10 12 37 21 59 26 61 85 229 90 255 9 47 49 164
58 170 5 4 6 12 3 18 -4 6 -2 11 4 11 7 0 9 8 5 20 -4 12 -2 20 5 20 6 0 8 5
5 10 -3 6 -1 10 6 10 6 0 9 8 6 20 -3 11 -1 20 4 20 4 0 6 7 3 15 -4 8 -1 15
6 15 6 0 10 6 7 13 -2 6 4 43 15 80 10 38 16 72 13 78 -4 5 -1 9 5 9 7 0 10 7
6 15 -3 8 -1 15 5 15 6 0 9 7 5 15 -3 8 -2 15 3 15 5 0 21 35 36 77 15 43 45
108 66 144 21 36 54 99 74 140 19 41 69 137 109 214 80 152 306 602 379 755
83 174 83 257 4 417 -65 131 -92 252 -117 538 -6 66 -18 179 -27 250 -9 72
-16 139 -15 149 2 30 -25 135 -38 151 -7 8 -38 17 -71 21 -36 4 -59 11 -59 19
0 15 -54 84 -81 103 -43 30 -352 131 -409 133 -29 2 -132 30 -238 65 -180 61
-346 93 -634 124 -156 16 -317 32 -358 35 -41 2 -129 14 -195 25 -150 25 -211
25 -275 1 -58 -22 -139 -80 -140 -98 0 -7 -4 -13 -9 -13 -5 0 -26 -28 -46 -62
-100 -173 -184 -300 -221 -333 -6 -5 -41 -57 -77 -115 -85 -134 -206 -278
-218 -259 -13 21 -11 62 7 110 9 24 16 69 15 99 -1 31 6 78 14 105 12 39 17
122 21 365 8 398 13 427 107 595 90 162 116 213 128 253 7 23 16 42 22 42 5 0
7 9 4 20 -4 14 1 25 14 33 10 6 19 23 19 37 0 60 64 250 122 365 72 144 120
218 233 367 100 130 174 273 206 398 30 114 33 319 6 397 -53 151 -176 222
-272 157z m1119 -3193 c81 -40 129 -58 286 -110 123 -41 161 -49 293 -56 l119
-8 -6 -31 c-3 -17 -9 -114 -12 -216 -7 -191 2 -303 33 -427 l15 -61 -52 -77
c-29 -43 -59 -85 -67 -94 -8 -9 -60 -87 -116 -173 -196 -299 -285 -433 -297
-446 -14 -15 -180 -16 -305 -1 -142 17 -326 80 -380 129 -27 26 -191 117 -367
207 -100 50 -148 80 -149 91 0 9 -1 103 -3 207 -1 124 -6 200 -14 218 -6 16
-12 68 -12 116 0 79 3 94 32 152 19 38 62 96 108 144 135 142 163 184 210 313
l22 62 47 0 c25 1 107 5 181 10 138 9 260 38 311 74 13 9 28 16 33 16 5 0 45
-18 90 -39z"/>
<path d="M5740 5144 c-56 -19 -115 -31 -306 -60 -24 -3 -34 -13 -52 -50 -22
-45 -112 -160 -204 -263 -27 -30 -61 -69 -75 -88 -25 -33 -25 -34 -10 -76 25
-65 37 -160 37 -292 0 -66 3 -129 6 -140 3 -12 32 -34 67 -54 167 -90 229
-121 248 -121 11 0 24 -10 30 -23 13 -28 141 -99 240 -132 62 -21 91 -25 196
-25 l123 0 67 103 c37 56 69 104 73 107 13 12 62 84 140 205 46 72 89 136 96
142 7 7 22 28 34 48 l21 35 -21 132 c-12 73 -23 185 -25 248 -1 63 -3 120 -4
127 -2 21 -44 36 -106 39 -45 2 -80 12 -135 38 -41 20 -80 36 -86 36 -6 0 -57
20 -114 45 -117 51 -143 53 -240 19z"/>
<path d="M1940 7479 c-72 -19 -185 -73 -224 -107 -36 -31 -96 -135 -116 -200
-24 -76 -28 -244 -7 -262 6 -6 48 -32 92 -58 101 -59 229 -168 369 -311 59
-62 110 -111 111 -109 2 3 64 299 81 388 4 19 7 46 8 60 0 14 5 28 9 31 5 4
10 25 10 48 1 22 6 41 11 41 4 0 6 11 4 25 -3 14 -1 25 5 25 5 0 7 9 4 20 -3
11 -1 20 5 20 6 0 8 13 6 30 -2 16 -1 31 3 32 10 4 47 229 48 289 l0 46 -46 7
c-99 13 -295 5 -373 -15z"/>
<path d="M3248 7483 c-16 -2 -28 -7 -28 -11 0 -4 -5 -47 -11 -97 -9 -80 -23
-375 -36 -773 -4 -121 -2 -138 17 -178 12 -24 26 -46 31 -49 19 -12 48 16 54
53 23 138 44 193 103 270 84 110 132 180 132 192 0 5 5 10 10 10 6 0 10 7 10
15 0 8 3 15 8 15 4 0 23 30 42 68 19 37 38 69 42 72 4 3 28 48 54 100 25 52
63 127 84 165 40 71 50 121 28 143 -9 9 -79 12 -262 11 -138 -1 -263 -4 -278
-6z"/>
<path d="M5068 7478 c-16 -5 -28 -13 -28 -17 0 -4 -35 -53 -79 -108 -120 -155
-146 -203 -185 -349 -37 -133 -73 -243 -94 -280 -6 -12 -8 -24 -5 -28 3 -3 1
-6 -6 -6 -7 0 -9 -4 -6 -10 3 -5 1 -10 -5 -10 -6 0 -8 -4 -5 -10 3 -5 1 -10
-6 -10 -7 0 -9 -3 -6 -7 4 -3 -1 -12 -11 -20 -11 -10 -12 -12 -2 -8 10 4 9 2
-2 -8 -10 -8 -15 -17 -11 -20 3 -4 1 -7 -5 -7 -7 0 -11 -3 -10 -7 4 -11 -35
-73 -45 -73 -4 0 -5 -4 -2 -10 3 -5 1 -10 -5 -10 -6 0 -8 -4 -5 -10 3 -5 1
-10 -5 -10 -6 0 -8 -4 -5 -10 3 -5 1 -10 -5 -10 -6 0 -8 -4 -5 -10 3 -5 1 -10
-6 -10 -7 0 -9 -3 -6 -6 4 -4 -3 -20 -14 -35 -11 -16 -18 -29 -15 -29 3 0 -2
-19 -10 -42 -8 -23 -12 -48 -10 -54 3 -7 0 -14 -6 -16 -8 -3 -13 -48 -16 -126
-5 -136 3 -212 22 -212 20 0 60 50 102 124 76 139 216 242 343 253 31 3 180
-7 331 -21 265 -25 337 -33 610 -71 206 -29 541 -109 805 -193 72 -23 148 -46
170 -51 22 -6 96 -31 165 -56 71 -26 138 -44 155 -43 l30 3 7 605 c8 663 6
699 -49 808 -32 64 -111 141 -181 176 -111 56 -105 56 -1017 55 -536 0 -850
-4 -867 -11z"/>
<path d="M1585 5361 c-3 -5 -6 -886 -8 -1958 l-2 -1948 30 -60 c54 -108 177
-211 276 -234 26 -6 339 -12 772 -15 787 -4 763 -6 753 47 -3 12 -14 78 -26
147 -12 69 -46 224 -76 345 -30 121 -56 236 -58 255 -3 19 -24 107 -47 195
-23 88 -42 169 -43 180 -5 58 -42 207 -92 375 -20 63 -37 127 -39 142 -3 27
-35 164 -82 353 -13 55 -26 109 -28 121 -5 23 -42 91 -157 289 -42 72 -102
175 -133 230 -124 216 -183 302 -260 385 -45 47 -106 112 -137 145 -61 66
-168 213 -168 232 0 6 -4 13 -8 15 -5 2 -21 35 -36 73 -52 130 -201 403 -288
524 -24 33 -61 85 -82 116 -40 55 -50 63 -61 46z"/>
<path d="M7114 3057 c-38 -57 -184 -351 -190 -381 -3 -16 -9 -37 -14 -46 -5
-9 -23 -72 -40 -141 -17 -68 -35 -136 -41 -150 -5 -14 -11 -36 -12 -50 -1 -13
-7 -35 -14 -48 -6 -14 -10 -28 -7 -33 3 -4 0 -8 -5 -8 -6 0 -11 -5 -11 -11 0
-7 -16 -56 -36 -111 -19 -54 -37 -107 -39 -116 -5 -24 -46 -135 -55 -147 -4
-5 -22 -48 -40 -95 -17 -46 -49 -118 -69 -160 -21 -41 -44 -91 -52 -110 -7
-19 -28 -57 -47 -85 -27 -41 -112 -207 -112 -219 0 -11 258 -15 385 -6 138 9
155 13 215 42 126 62 207 172 229 313 16 110 27 1561 11 1580 -19 23 -33 18
-56 -18z"/>
</g>
</svg>
